<mxfile host="app.diagrams.net" agent="Mozilla/5.0 (Windows NT 10.0; Win64; x64) AppleWebKit/537.36 (KHTML, like Gecko) Chrome/132.0.0.0 Safari/537.36" version="26.0.10">
  <diagram name="Página-1" id="8q3nMrSTGjrw8Liop4Zv">
    <mxGraphModel dx="2415" dy="1448" grid="1" gridSize="10" guides="1" tooltips="1" connect="1" arrows="1" fold="1" page="1" pageScale="1" pageWidth="827" pageHeight="1169" math="0" shadow="0">
      <root>
        <mxCell id="0" />
        <mxCell id="1" parent="0" />
        <mxCell id="Rn6zsQ9lE487QyaF94sX-3" value="" style="rounded=0;whiteSpace=wrap;html=1;fillColor=#f5f5f5;strokeColor=#666666;fontColor=#333333;" vertex="1" parent="1">
          <mxGeometry x="-290" y="20" width="1370" height="1090" as="geometry" />
        </mxCell>
        <mxCell id="Rn6zsQ9lE487QyaF94sX-30" style="edgeStyle=orthogonalEdgeStyle;rounded=0;orthogonalLoop=1;jettySize=auto;html=1;exitX=0.55;exitY=0.95;exitDx=0;exitDy=0;exitPerimeter=0;curved=1;dashed=1;entryX=0.51;entryY=0.128;entryDx=0;entryDy=0;entryPerimeter=0;" edge="1" parent="1" source="Rn6zsQ9lE487QyaF94sX-4" target="Rn6zsQ9lE487QyaF94sX-7">
          <mxGeometry relative="1" as="geometry" />
        </mxCell>
        <mxCell id="Rn6zsQ9lE487QyaF94sX-31" value="ACL" style="edgeLabel;html=1;align=center;verticalAlign=middle;resizable=0;points=[];fontStyle=1;fontSize=21;" vertex="1" connectable="0" parent="Rn6zsQ9lE487QyaF94sX-30">
          <mxGeometry x="-0.083" y="5" relative="1" as="geometry">
            <mxPoint x="1" as="offset" />
          </mxGeometry>
        </mxCell>
        <mxCell id="Rn6zsQ9lE487QyaF94sX-18" value="" style="group" vertex="1" connectable="0" parent="1">
          <mxGeometry x="-200" y="170" width="280" height="235" as="geometry" />
        </mxCell>
        <mxCell id="Rn6zsQ9lE487QyaF94sX-5" value="&lt;b&gt;&lt;font style=&quot;font-size: 18px;&quot;&gt;Filas&lt;/font&gt;&lt;/b&gt;" style="ellipse;shape=cloud;whiteSpace=wrap;html=1;fillColor=#dae8fc;strokeColor=#6c8ebf;" vertex="1" parent="Rn6zsQ9lE487QyaF94sX-18">
          <mxGeometry width="280" height="235" as="geometry" />
        </mxCell>
        <mxCell id="Rn6zsQ9lE487QyaF94sX-16" value="Gestão De Fila" style="rounded=1;whiteSpace=wrap;html=1;" vertex="1" parent="Rn6zsQ9lE487QyaF94sX-18">
          <mxGeometry x="60" y="150" width="70" height="30" as="geometry" />
        </mxCell>
        <mxCell id="Rn6zsQ9lE487QyaF94sX-17" value="Mapa" style="rounded=1;whiteSpace=wrap;html=1;" vertex="1" parent="Rn6zsQ9lE487QyaF94sX-18">
          <mxGeometry x="160" y="150" width="70" height="30" as="geometry" />
        </mxCell>
        <mxCell id="Rn6zsQ9lE487QyaF94sX-32" style="edgeStyle=orthogonalEdgeStyle;rounded=0;orthogonalLoop=1;jettySize=auto;html=1;exitX=0.96;exitY=0.7;exitDx=0;exitDy=0;exitPerimeter=0;entryX=0.4;entryY=0.1;entryDx=0;entryDy=0;entryPerimeter=0;curved=1;dashed=1;" edge="1" parent="1" source="Rn6zsQ9lE487QyaF94sX-5" target="Rn6zsQ9lE487QyaF94sX-7">
          <mxGeometry relative="1" as="geometry" />
        </mxCell>
        <mxCell id="Rn6zsQ9lE487QyaF94sX-33" value="ACL" style="edgeLabel;html=1;align=center;verticalAlign=middle;resizable=0;points=[];fontStyle=1;fontSize=21;" vertex="1" connectable="0" parent="Rn6zsQ9lE487QyaF94sX-32">
          <mxGeometry x="-0.212" y="16" relative="1" as="geometry">
            <mxPoint x="-55" y="28" as="offset" />
          </mxGeometry>
        </mxCell>
        <mxCell id="Rn6zsQ9lE487QyaF94sX-34" style="edgeStyle=orthogonalEdgeStyle;rounded=0;orthogonalLoop=1;jettySize=auto;html=1;exitX=0.55;exitY=0.95;exitDx=0;exitDy=0;exitPerimeter=0;entryX=0.772;entryY=0.187;entryDx=0;entryDy=0;entryPerimeter=0;curved=1;dashed=1;" edge="1" parent="1" source="Rn6zsQ9lE487QyaF94sX-10" target="Rn6zsQ9lE487QyaF94sX-7">
          <mxGeometry relative="1" as="geometry" />
        </mxCell>
        <mxCell id="Rn6zsQ9lE487QyaF94sX-35" value="ACL" style="edgeLabel;html=1;align=center;verticalAlign=middle;resizable=0;points=[];fontStyle=1;fontSize=21;" vertex="1" connectable="0" parent="Rn6zsQ9lE487QyaF94sX-34">
          <mxGeometry x="-0.169" y="-1" relative="1" as="geometry">
            <mxPoint x="-28" y="-4" as="offset" />
          </mxGeometry>
        </mxCell>
        <mxCell id="Rn6zsQ9lE487QyaF94sX-37" style="edgeStyle=orthogonalEdgeStyle;rounded=0;orthogonalLoop=1;jettySize=auto;html=1;exitX=0.88;exitY=0.25;exitDx=0;exitDy=0;exitPerimeter=0;entryX=0.4;entryY=0.1;entryDx=0;entryDy=0;entryPerimeter=0;curved=1;dashed=1;fontStyle=1" edge="1" parent="1" source="Rn6zsQ9lE487QyaF94sX-10" target="Rn6zsQ9lE487QyaF94sX-8">
          <mxGeometry relative="1" as="geometry" />
        </mxCell>
        <mxCell id="Rn6zsQ9lE487QyaF94sX-47" value="CS" style="edgeLabel;html=1;align=center;verticalAlign=middle;resizable=0;points=[];fontStyle=1;fontSize=21;" vertex="1" connectable="0" parent="Rn6zsQ9lE487QyaF94sX-37">
          <mxGeometry x="0.1764" y="13" relative="1" as="geometry">
            <mxPoint as="offset" />
          </mxGeometry>
        </mxCell>
        <mxCell id="Rn6zsQ9lE487QyaF94sX-40" value="" style="group" vertex="1" connectable="0" parent="1">
          <mxGeometry x="84" y="40" width="330" height="240" as="geometry" />
        </mxCell>
        <mxCell id="Rn6zsQ9lE487QyaF94sX-4" value="&lt;font style=&quot;font-size: 18px;&quot;&gt;&lt;b&gt;Reservas&lt;/b&gt;&lt;/font&gt;" style="ellipse;shape=cloud;whiteSpace=wrap;html=1;fillColor=#dae8fc;strokeColor=#6c8ebf;" vertex="1" parent="Rn6zsQ9lE487QyaF94sX-40">
          <mxGeometry width="330" height="240" as="geometry" />
        </mxCell>
        <mxCell id="Rn6zsQ9lE487QyaF94sX-11" value="Controle de Ocupação" style="rounded=1;whiteSpace=wrap;html=1;" vertex="1" parent="Rn6zsQ9lE487QyaF94sX-40">
          <mxGeometry x="56" y="150" width="70" height="30" as="geometry" />
        </mxCell>
        <mxCell id="Rn6zsQ9lE487QyaF94sX-13" value="Gestão de Filas" style="rounded=1;whiteSpace=wrap;html=1;" vertex="1" parent="Rn6zsQ9lE487QyaF94sX-40">
          <mxGeometry x="136" y="150" width="70" height="30" as="geometry" />
        </mxCell>
        <mxCell id="Rn6zsQ9lE487QyaF94sX-14" value="Mapa" style="rounded=1;whiteSpace=wrap;html=1;" vertex="1" parent="Rn6zsQ9lE487QyaF94sX-40">
          <mxGeometry x="216" y="150" width="70" height="30" as="geometry" />
        </mxCell>
        <mxCell id="Rn6zsQ9lE487QyaF94sX-42" value="" style="group" vertex="1" connectable="0" parent="1">
          <mxGeometry x="-240" y="530" width="360" height="250" as="geometry" />
        </mxCell>
        <mxCell id="Rn6zsQ9lE487QyaF94sX-6" value="&lt;font style=&quot;font-size: 18px;&quot;&gt;&lt;b&gt;Ocupação&lt;/b&gt;&lt;/font&gt;" style="ellipse;shape=cloud;whiteSpace=wrap;html=1;fillColor=#dae8fc;strokeColor=#6c8ebf;" vertex="1" parent="Rn6zsQ9lE487QyaF94sX-42">
          <mxGeometry width="360" height="250" as="geometry" />
        </mxCell>
        <mxCell id="Rn6zsQ9lE487QyaF94sX-23" value="Controle De Ocupação" style="rounded=1;whiteSpace=wrap;html=1;" vertex="1" parent="Rn6zsQ9lE487QyaF94sX-42">
          <mxGeometry x="145" y="147.5" width="70" height="30" as="geometry" />
        </mxCell>
        <mxCell id="Rn6zsQ9lE487QyaF94sX-43" value="" style="group" vertex="1" connectable="0" parent="1">
          <mxGeometry x="105" y="820" width="335" height="225" as="geometry" />
        </mxCell>
        <mxCell id="Rn6zsQ9lE487QyaF94sX-7" value="&lt;font style=&quot;font-size: 18px;&quot;&gt;&lt;b&gt;Pagamentos&lt;/b&gt;&lt;/font&gt;" style="ellipse;shape=cloud;whiteSpace=wrap;html=1;fillColor=#dae8fc;strokeColor=#6c8ebf;" vertex="1" parent="Rn6zsQ9lE487QyaF94sX-43">
          <mxGeometry width="335" height="225" as="geometry" />
        </mxCell>
        <mxCell id="Rn6zsQ9lE487QyaF94sX-24" value="Pagamentos" style="rounded=1;whiteSpace=wrap;html=1;" vertex="1" parent="Rn6zsQ9lE487QyaF94sX-43">
          <mxGeometry x="132.5" y="135" width="70" height="30" as="geometry" />
        </mxCell>
        <mxCell id="Rn6zsQ9lE487QyaF94sX-44" value="" style="group" vertex="1" connectable="0" parent="1">
          <mxGeometry x="440" y="30" width="290" height="240" as="geometry" />
        </mxCell>
        <mxCell id="Rn6zsQ9lE487QyaF94sX-10" value="&lt;b&gt;&lt;font style=&quot;font-size: 18px;&quot;&gt;Pedido&lt;/font&gt;&lt;/b&gt;" style="ellipse;shape=cloud;whiteSpace=wrap;html=1;fillColor=#dae8fc;strokeColor=#6c8ebf;" vertex="1" parent="Rn6zsQ9lE487QyaF94sX-44">
          <mxGeometry width="290" height="240" as="geometry" />
        </mxCell>
        <mxCell id="Rn6zsQ9lE487QyaF94sX-28" value="Gestão de Pedidos" style="rounded=1;whiteSpace=wrap;html=1;" vertex="1" parent="Rn6zsQ9lE487QyaF94sX-44">
          <mxGeometry x="70" y="150" width="70" height="30" as="geometry" />
        </mxCell>
        <mxCell id="Rn6zsQ9lE487QyaF94sX-29" value="Menu" style="rounded=1;whiteSpace=wrap;html=1;" vertex="1" parent="Rn6zsQ9lE487QyaF94sX-44">
          <mxGeometry x="160" y="150" width="70" height="30" as="geometry" />
        </mxCell>
        <mxCell id="Rn6zsQ9lE487QyaF94sX-45" value="" style="group" vertex="1" connectable="0" parent="1">
          <mxGeometry x="500" y="730" width="270" height="230" as="geometry" />
        </mxCell>
        <mxCell id="Rn6zsQ9lE487QyaF94sX-9" value="&lt;font style=&quot;font-size: 18px;&quot;&gt;&lt;b&gt;Cadastro&lt;/b&gt;&lt;/font&gt;" style="ellipse;shape=cloud;whiteSpace=wrap;html=1;fillColor=#dae8fc;strokeColor=#6c8ebf;" vertex="1" parent="Rn6zsQ9lE487QyaF94sX-45">
          <mxGeometry width="270" height="230" as="geometry" />
        </mxCell>
        <mxCell id="Rn6zsQ9lE487QyaF94sX-26" value="Cadastro de Usuário" style="rounded=1;whiteSpace=wrap;html=1;" vertex="1" parent="Rn6zsQ9lE487QyaF94sX-45">
          <mxGeometry x="40" y="142.5" width="70" height="30" as="geometry" />
        </mxCell>
        <mxCell id="Rn6zsQ9lE487QyaF94sX-27" value="Cadastro de estabelecimento" style="rounded=1;whiteSpace=wrap;html=1;" vertex="1" parent="Rn6zsQ9lE487QyaF94sX-45">
          <mxGeometry x="130" y="142.5" width="100" height="30" as="geometry" />
        </mxCell>
        <mxCell id="Rn6zsQ9lE487QyaF94sX-46" value="" style="group" vertex="1" connectable="0" parent="1">
          <mxGeometry x="730" y="420" width="310" height="230" as="geometry" />
        </mxCell>
        <mxCell id="Rn6zsQ9lE487QyaF94sX-8" value="&lt;b&gt;&lt;font style=&quot;font-size: 18px;&quot;&gt;Análise de Dados&lt;/font&gt;&lt;/b&gt;" style="ellipse;shape=cloud;whiteSpace=wrap;html=1;fillColor=#dae8fc;strokeColor=#6c8ebf;" vertex="1" parent="Rn6zsQ9lE487QyaF94sX-46">
          <mxGeometry width="310" height="230" as="geometry" />
        </mxCell>
        <mxCell id="Rn6zsQ9lE487QyaF94sX-25" value="Analise De Dados" style="rounded=1;whiteSpace=wrap;html=1;" vertex="1" parent="Rn6zsQ9lE487QyaF94sX-46">
          <mxGeometry x="120" y="150" width="70" height="30" as="geometry" />
        </mxCell>
        <mxCell id="Rn6zsQ9lE487QyaF94sX-48" style="edgeStyle=orthogonalEdgeStyle;rounded=0;orthogonalLoop=1;jettySize=auto;html=1;exitX=0.154;exitY=0.811;exitDx=0;exitDy=0;exitPerimeter=0;curved=1;dashed=1;" edge="1" parent="1" source="Rn6zsQ9lE487QyaF94sX-4">
          <mxGeometry relative="1" as="geometry">
            <mxPoint x="260" y="290" as="sourcePoint" />
            <mxPoint x="797.0000000000005" y="478" as="targetPoint" />
            <Array as="points">
              <mxPoint x="135" y="370" />
              <mxPoint x="798" y="370" />
              <mxPoint x="798" y="478" />
            </Array>
          </mxGeometry>
        </mxCell>
        <mxCell id="Rn6zsQ9lE487QyaF94sX-49" value="CS" style="edgeLabel;html=1;align=center;verticalAlign=middle;resizable=0;points=[];fontStyle=1;fontSize=21;" vertex="1" connectable="0" parent="Rn6zsQ9lE487QyaF94sX-48">
          <mxGeometry x="-0.0251" y="3" relative="1" as="geometry">
            <mxPoint as="offset" />
          </mxGeometry>
        </mxCell>
        <mxCell id="Rn6zsQ9lE487QyaF94sX-50" style="edgeStyle=orthogonalEdgeStyle;rounded=0;orthogonalLoop=1;jettySize=auto;html=1;exitX=0.55;exitY=0.95;exitDx=0;exitDy=0;exitPerimeter=0;entryX=0.13;entryY=0.77;entryDx=0;entryDy=0;entryPerimeter=0;curved=1;dashed=1;" edge="1" parent="1" source="Rn6zsQ9lE487QyaF94sX-5" target="Rn6zsQ9lE487QyaF94sX-8">
          <mxGeometry relative="1" as="geometry">
            <Array as="points">
              <mxPoint x="-46" y="597" />
            </Array>
          </mxGeometry>
        </mxCell>
        <mxCell id="Rn6zsQ9lE487QyaF94sX-51" value="CS" style="edgeLabel;html=1;align=center;verticalAlign=middle;resizable=0;points=[];fontStyle=1;fontSize=21;" vertex="1" connectable="0" parent="Rn6zsQ9lE487QyaF94sX-50">
          <mxGeometry x="0.1797" y="15" relative="1" as="geometry">
            <mxPoint as="offset" />
          </mxGeometry>
        </mxCell>
        <mxCell id="Rn6zsQ9lE487QyaF94sX-52" style="edgeStyle=orthogonalEdgeStyle;rounded=0;orthogonalLoop=1;jettySize=auto;html=1;exitX=0.96;exitY=0.7;exitDx=0;exitDy=0;exitPerimeter=0;entryX=0.444;entryY=0.914;entryDx=0;entryDy=0;entryPerimeter=0;dashed=1;curved=1;" edge="1" parent="1" source="Rn6zsQ9lE487QyaF94sX-6" target="Rn6zsQ9lE487QyaF94sX-8">
          <mxGeometry relative="1" as="geometry">
            <Array as="points">
              <mxPoint x="540" y="705" />
              <mxPoint x="540" y="700" />
              <mxPoint x="868" y="700" />
            </Array>
          </mxGeometry>
        </mxCell>
        <mxCell id="Rn6zsQ9lE487QyaF94sX-53" value="CS" style="edgeLabel;html=1;align=center;verticalAlign=middle;resizable=0;points=[];fontStyle=1;fontSize=21;" vertex="1" connectable="0" parent="Rn6zsQ9lE487QyaF94sX-52">
          <mxGeometry x="0.0462" y="1" relative="1" as="geometry">
            <mxPoint y="-1" as="offset" />
          </mxGeometry>
        </mxCell>
        <mxCell id="Rn6zsQ9lE487QyaF94sX-54" style="edgeStyle=orthogonalEdgeStyle;rounded=0;orthogonalLoop=1;jettySize=auto;html=1;exitX=0.96;exitY=0.7;exitDx=0;exitDy=0;exitPerimeter=0;entryX=0.8;entryY=0.8;entryDx=0;entryDy=0;entryPerimeter=0;dashed=1;curved=1;" edge="1" parent="1" source="Rn6zsQ9lE487QyaF94sX-9" target="Rn6zsQ9lE487QyaF94sX-8">
          <mxGeometry relative="1" as="geometry">
            <Array as="points">
              <mxPoint x="759" y="740" />
              <mxPoint x="978" y="740" />
            </Array>
          </mxGeometry>
        </mxCell>
        <mxCell id="Rn6zsQ9lE487QyaF94sX-55" value="CS" style="edgeLabel;html=1;align=center;verticalAlign=middle;resizable=0;points=[];fontStyle=1;fontSize=21;" vertex="1" connectable="0" parent="Rn6zsQ9lE487QyaF94sX-54">
          <mxGeometry x="-0.0281" relative="1" as="geometry">
            <mxPoint as="offset" />
          </mxGeometry>
        </mxCell>
      </root>
    </mxGraphModel>
  </diagram>
</mxfile>
